<mxfile host="app.diagrams.net" modified="2023-07-30T08:58:12.757Z" agent="Mozilla/5.0 (Windows NT 10.0; Win64; x64) AppleWebKit/537.36 (KHTML, like Gecko) Chrome/114.0.0.0 Safari/537.36" etag="auu9lAmXX3mfAyEPI5w2" version="21.6.6" type="github">
  <diagram name="Page-1" id="c0M4BTOoxwZiLj32LfCo">
    <mxGraphModel dx="2039" dy="1134" grid="1" gridSize="10" guides="1" tooltips="1" connect="1" arrows="1" fold="1" page="1" pageScale="1" pageWidth="1600" pageHeight="1200" math="0" shadow="0">
      <root>
        <mxCell id="0" />
        <mxCell id="1" parent="0" />
        <mxCell id="giPSf6ay60JO8Sps-m6U-17" value="" style="rounded=1;whiteSpace=wrap;html=1;fillColor=none;" parent="1" vertex="1">
          <mxGeometry x="700" y="60" width="850" height="1040" as="geometry" />
        </mxCell>
        <mxCell id="giPSf6ay60JO8Sps-m6U-3" value="" style="rounded=1;whiteSpace=wrap;html=1;fillColor=none;" parent="1" vertex="1">
          <mxGeometry x="120" y="80" width="710" height="790" as="geometry" />
        </mxCell>
        <mxCell id="giPSf6ay60JO8Sps-m6U-2" value="AZ eu-west-1a" style="text;html=1;strokeColor=none;fillColor=none;align=center;verticalAlign=middle;whiteSpace=wrap;rounded=0;fontColor=#994C00;" parent="1" vertex="1">
          <mxGeometry x="400" y="700" width="140" height="30" as="geometry" />
        </mxCell>
        <mxCell id="giPSf6ay60JO8Sps-m6U-4" value="VPC&lt;br&gt;172.31.0.0/16" style="text;html=1;strokeColor=none;fillColor=none;align=center;verticalAlign=middle;whiteSpace=wrap;rounded=0;" parent="1" vertex="1">
          <mxGeometry x="440" y="830" width="60" height="30" as="geometry" />
        </mxCell>
        <mxCell id="giPSf6ay60JO8Sps-m6U-5" value="" style="rounded=1;whiteSpace=wrap;html=1;fillColor=none;" parent="1" vertex="1">
          <mxGeometry x="275" y="110" width="390" height="360" as="geometry" />
        </mxCell>
        <mxCell id="giPSf6ay60JO8Sps-m6U-1" value="" style="rounded=1;whiteSpace=wrap;html=1;dashed=1;dashPattern=8 8;fillColor=none;strokeColor=#d79b00;" parent="1" vertex="1">
          <mxGeometry x="50" y="170" width="840" height="590" as="geometry" />
        </mxCell>
        <mxCell id="giPSf6ay60JO8Sps-m6U-6" value="Private Subnet&lt;br&gt;172.31.0.0/20" style="text;html=1;strokeColor=none;fillColor=none;align=center;verticalAlign=middle;whiteSpace=wrap;rounded=0;" parent="1" vertex="1">
          <mxGeometry x="422.5" y="420" width="95" height="30" as="geometry" />
        </mxCell>
        <mxCell id="giPSf6ay60JO8Sps-m6U-7" value="" style="shape=card;whiteSpace=wrap;html=1;" parent="1" vertex="1">
          <mxGeometry x="550" y="200" width="80" height="100" as="geometry" />
        </mxCell>
        <mxCell id="giPSf6ay60JO8Sps-m6U-8" value="" style="ellipse;whiteSpace=wrap;html=1;aspect=fixed;" parent="1" vertex="1">
          <mxGeometry x="850" y="530" width="80" height="80" as="geometry" />
        </mxCell>
        <mxCell id="giPSf6ay60JO8Sps-m6U-9" value="Router" style="text;html=1;strokeColor=none;fillColor=none;align=center;verticalAlign=middle;whiteSpace=wrap;rounded=0;" parent="1" vertex="1">
          <mxGeometry x="860" y="630" width="60" height="30" as="geometry" />
        </mxCell>
        <mxCell id="giPSf6ay60JO8Sps-m6U-10" value="" style="ellipse;whiteSpace=wrap;html=1;aspect=fixed;" parent="1" vertex="1">
          <mxGeometry x="1000" y="530" width="80" height="80" as="geometry" />
        </mxCell>
        <mxCell id="giPSf6ay60JO8Sps-m6U-11" value="Internet Gateway" style="text;html=1;strokeColor=none;fillColor=none;align=center;verticalAlign=middle;whiteSpace=wrap;rounded=0;" parent="1" vertex="1">
          <mxGeometry x="1010" y="630" width="60" height="30" as="geometry" />
        </mxCell>
        <mxCell id="giPSf6ay60JO8Sps-m6U-12" value="" style="ellipse;shape=cloud;whiteSpace=wrap;html=1;" parent="1" vertex="1">
          <mxGeometry x="1180" y="530" width="120" height="80" as="geometry" />
        </mxCell>
        <mxCell id="giPSf6ay60JO8Sps-m6U-13" value="" style="endArrow=none;html=1;rounded=0;entryX=0;entryY=0.5;entryDx=0;entryDy=0;exitX=1;exitY=0.5;exitDx=0;exitDy=0;" parent="1" source="giPSf6ay60JO8Sps-m6U-8" target="giPSf6ay60JO8Sps-m6U-10" edge="1">
          <mxGeometry width="50" height="50" relative="1" as="geometry">
            <mxPoint x="700" y="590" as="sourcePoint" />
            <mxPoint x="750" y="540" as="targetPoint" />
          </mxGeometry>
        </mxCell>
        <mxCell id="giPSf6ay60JO8Sps-m6U-14" value="" style="endArrow=none;html=1;rounded=0;entryX=0.16;entryY=0.55;entryDx=0;entryDy=0;entryPerimeter=0;exitX=1;exitY=0.5;exitDx=0;exitDy=0;" parent="1" source="giPSf6ay60JO8Sps-m6U-10" target="giPSf6ay60JO8Sps-m6U-12" edge="1">
          <mxGeometry width="50" height="50" relative="1" as="geometry">
            <mxPoint x="700" y="590" as="sourcePoint" />
            <mxPoint x="750" y="540" as="targetPoint" />
          </mxGeometry>
        </mxCell>
        <mxCell id="giPSf6ay60JO8Sps-m6U-15" value="" style="endArrow=none;html=1;rounded=0;entryX=0;entryY=0.5;entryDx=0;entryDy=0;" parent="1" target="giPSf6ay60JO8Sps-m6U-8" edge="1">
          <mxGeometry width="50" height="50" relative="1" as="geometry">
            <mxPoint x="590" y="570" as="sourcePoint" />
            <mxPoint x="750" y="540" as="targetPoint" />
          </mxGeometry>
        </mxCell>
        <mxCell id="giPSf6ay60JO8Sps-m6U-16" value="" style="endArrow=none;html=1;rounded=0;entryX=0.5;entryY=1;entryDx=0;entryDy=0;entryPerimeter=0;" parent="1" target="giPSf6ay60JO8Sps-m6U-7" edge="1">
          <mxGeometry width="50" height="50" relative="1" as="geometry">
            <mxPoint x="590" y="570" as="sourcePoint" />
            <mxPoint x="750" y="540" as="targetPoint" />
          </mxGeometry>
        </mxCell>
        <mxCell id="giPSf6ay60JO8Sps-m6U-18" value="&lt;font style=&quot;font-size: 14px;&quot;&gt;Region&lt;/font&gt;" style="text;html=1;strokeColor=none;fillColor=none;align=center;verticalAlign=middle;whiteSpace=wrap;rounded=0;" parent="1" vertex="1">
          <mxGeometry x="440" y="890" width="60" height="30" as="geometry" />
        </mxCell>
        <mxCell id="giPSf6ay60JO8Sps-m6U-19" value="Assets" style="childLayout=tableLayout;recursiveResize=0;strokeColor=#98bf21;fillColor=#A7C942;shadow=1;" parent="1" vertex="1">
          <mxGeometry x="1170" y="20" width="240" height="93" as="geometry" />
        </mxCell>
        <mxCell id="giPSf6ay60JO8Sps-m6U-20" style="shape=tableRow;horizontal=0;startSize=0;swimlaneHead=0;swimlaneBody=0;top=0;left=0;bottom=0;right=0;dropTarget=0;collapsible=0;recursiveResize=0;expand=0;fontStyle=0;strokeColor=inherit;fillColor=#ffffff;" parent="giPSf6ay60JO8Sps-m6U-19" vertex="1">
          <mxGeometry width="240" height="30" as="geometry" />
        </mxCell>
        <mxCell id="giPSf6ay60JO8Sps-m6U-21" value="Destination" style="connectable=0;recursiveResize=0;strokeColor=inherit;fillColor=#A7C942;align=center;fontStyle=1;fontColor=#FFFFFF;html=1;" parent="giPSf6ay60JO8Sps-m6U-20" vertex="1">
          <mxGeometry width="100" height="30" as="geometry">
            <mxRectangle width="100" height="30" as="alternateBounds" />
          </mxGeometry>
        </mxCell>
        <mxCell id="giPSf6ay60JO8Sps-m6U-22" value="Target" style="connectable=0;recursiveResize=0;strokeColor=inherit;fillColor=#A7C942;align=center;fontStyle=1;fontColor=#FFFFFF;html=1;" parent="giPSf6ay60JO8Sps-m6U-20" vertex="1">
          <mxGeometry x="100" width="120" height="30" as="geometry">
            <mxRectangle width="120" height="30" as="alternateBounds" />
          </mxGeometry>
        </mxCell>
        <mxCell id="giPSf6ay60JO8Sps-m6U-23" value="" style="connectable=0;recursiveResize=0;strokeColor=inherit;fillColor=#A7C942;align=center;fontStyle=1;fontColor=#FFFFFF;html=1;" parent="giPSf6ay60JO8Sps-m6U-20" vertex="1">
          <mxGeometry x="220" width="20" height="30" as="geometry">
            <mxRectangle width="20" height="30" as="alternateBounds" />
          </mxGeometry>
        </mxCell>
        <mxCell id="giPSf6ay60JO8Sps-m6U-24" value="" style="shape=tableRow;horizontal=0;startSize=0;swimlaneHead=0;swimlaneBody=0;top=0;left=0;bottom=0;right=0;dropTarget=0;collapsible=0;recursiveResize=0;expand=0;fontStyle=0;strokeColor=inherit;fillColor=#ffffff;" parent="giPSf6ay60JO8Sps-m6U-19" vertex="1">
          <mxGeometry y="30" width="240" height="32" as="geometry" />
        </mxCell>
        <mxCell id="giPSf6ay60JO8Sps-m6U-25" value="172.31.0.0/20" style="connectable=0;recursiveResize=0;strokeColor=inherit;fillColor=inherit;align=center;whiteSpace=wrap;html=1;" parent="giPSf6ay60JO8Sps-m6U-24" vertex="1">
          <mxGeometry width="100" height="32" as="geometry">
            <mxRectangle width="100" height="32" as="alternateBounds" />
          </mxGeometry>
        </mxCell>
        <mxCell id="giPSf6ay60JO8Sps-m6U-26" value="Local" style="connectable=0;recursiveResize=0;strokeColor=inherit;fillColor=inherit;align=center;whiteSpace=wrap;html=1;" parent="giPSf6ay60JO8Sps-m6U-24" vertex="1">
          <mxGeometry x="100" width="120" height="32" as="geometry">
            <mxRectangle width="120" height="32" as="alternateBounds" />
          </mxGeometry>
        </mxCell>
        <mxCell id="giPSf6ay60JO8Sps-m6U-27" value="" style="connectable=0;recursiveResize=0;strokeColor=inherit;fillColor=inherit;align=center;whiteSpace=wrap;html=1;" parent="giPSf6ay60JO8Sps-m6U-24" vertex="1">
          <mxGeometry x="220" width="20" height="32" as="geometry">
            <mxRectangle width="20" height="32" as="alternateBounds" />
          </mxGeometry>
        </mxCell>
        <mxCell id="giPSf6ay60JO8Sps-m6U-28" value="" style="shape=tableRow;horizontal=0;startSize=0;swimlaneHead=0;swimlaneBody=0;top=0;left=0;bottom=0;right=0;dropTarget=0;collapsible=0;recursiveResize=0;expand=0;fontStyle=1;strokeColor=inherit;fillColor=#EAF2D3;" parent="giPSf6ay60JO8Sps-m6U-19" vertex="1">
          <mxGeometry y="62" width="240" height="31" as="geometry" />
        </mxCell>
        <mxCell id="giPSf6ay60JO8Sps-m6U-29" value="0.0.0.0/0" style="connectable=0;recursiveResize=0;strokeColor=inherit;fillColor=inherit;whiteSpace=wrap;html=1;" parent="giPSf6ay60JO8Sps-m6U-28" vertex="1">
          <mxGeometry width="100" height="31" as="geometry">
            <mxRectangle width="100" height="31" as="alternateBounds" />
          </mxGeometry>
        </mxCell>
        <mxCell id="giPSf6ay60JO8Sps-m6U-30" value="igw-id" style="connectable=0;recursiveResize=0;strokeColor=inherit;fillColor=inherit;whiteSpace=wrap;html=1;" parent="giPSf6ay60JO8Sps-m6U-28" vertex="1">
          <mxGeometry x="100" width="120" height="31" as="geometry">
            <mxRectangle width="120" height="31" as="alternateBounds" />
          </mxGeometry>
        </mxCell>
        <mxCell id="giPSf6ay60JO8Sps-m6U-31" value="" style="connectable=0;recursiveResize=0;strokeColor=inherit;fillColor=inherit;whiteSpace=wrap;html=1;" parent="giPSf6ay60JO8Sps-m6U-28" vertex="1">
          <mxGeometry x="220" width="20" height="31" as="geometry">
            <mxRectangle width="20" height="31" as="alternateBounds" />
          </mxGeometry>
        </mxCell>
        <mxCell id="kJUBwsbBLmpp6doSzpsi-1" value="" style="rounded=0;whiteSpace=wrap;html=1;" vertex="1" parent="1">
          <mxGeometry x="280" y="260" width="120" height="30" as="geometry" />
        </mxCell>
        <mxCell id="kJUBwsbBLmpp6doSzpsi-2" value="&amp;nbsp;&lt;span style=&quot;color: rgb(22, 25, 31); font-family: &amp;quot;Amazon Ember&amp;quot;, &amp;quot;Helvetica Neue&amp;quot;, Roboto, Arial, sans-serif; font-size: 14px; text-align: left; background-color: rgb(255, 255, 255);&quot;&gt;172.31.1.90&lt;/span&gt;" style="text;html=1;strokeColor=none;fillColor=none;align=center;verticalAlign=middle;whiteSpace=wrap;rounded=0;" vertex="1" parent="1">
          <mxGeometry x="310" y="260" width="60" height="30" as="geometry" />
        </mxCell>
        <mxCell id="kJUBwsbBLmpp6doSzpsi-3" value="First EC2 Instance" style="text;html=1;strokeColor=none;fillColor=none;align=center;verticalAlign=middle;whiteSpace=wrap;rounded=0;" vertex="1" parent="1">
          <mxGeometry x="560" y="250" width="60" height="30" as="geometry" />
        </mxCell>
        <mxCell id="kJUBwsbBLmpp6doSzpsi-8" value="Assets" style="childLayout=tableLayout;recursiveResize=0;strokeColor=#98bf21;fillColor=#A7C942;shadow=1;" vertex="1" parent="1">
          <mxGeometry x="510" y="1010" width="300" height="93" as="geometry" />
        </mxCell>
        <mxCell id="kJUBwsbBLmpp6doSzpsi-9" style="shape=tableRow;horizontal=0;startSize=0;swimlaneHead=0;swimlaneBody=0;top=0;left=0;bottom=0;right=0;dropTarget=0;collapsible=0;recursiveResize=0;expand=0;fontStyle=0;strokeColor=inherit;fillColor=#ffffff;" vertex="1" parent="kJUBwsbBLmpp6doSzpsi-8">
          <mxGeometry width="300" height="30" as="geometry" />
        </mxCell>
        <mxCell id="kJUBwsbBLmpp6doSzpsi-10" value="Server" style="connectable=0;recursiveResize=0;strokeColor=inherit;fillColor=#A7C942;align=center;fontStyle=1;fontColor=#FFFFFF;html=1;" vertex="1" parent="kJUBwsbBLmpp6doSzpsi-9">
          <mxGeometry width="100" height="30" as="geometry">
            <mxRectangle width="100" height="30" as="alternateBounds" />
          </mxGeometry>
        </mxCell>
        <mxCell id="kJUBwsbBLmpp6doSzpsi-11" value="IPv4 Address" style="connectable=0;recursiveResize=0;strokeColor=inherit;fillColor=#A7C942;align=center;fontStyle=1;fontColor=#FFFFFF;html=1;" vertex="1" parent="kJUBwsbBLmpp6doSzpsi-9">
          <mxGeometry x="100" width="110" height="30" as="geometry">
            <mxRectangle width="110" height="30" as="alternateBounds" />
          </mxGeometry>
        </mxCell>
        <mxCell id="kJUBwsbBLmpp6doSzpsi-12" value="Elastic IP" style="connectable=0;recursiveResize=0;strokeColor=inherit;fillColor=#A7C942;align=center;fontStyle=1;fontColor=#FFFFFF;html=1;" vertex="1" parent="kJUBwsbBLmpp6doSzpsi-9">
          <mxGeometry x="210" width="90" height="30" as="geometry">
            <mxRectangle width="90" height="30" as="alternateBounds" />
          </mxGeometry>
        </mxCell>
        <mxCell id="kJUBwsbBLmpp6doSzpsi-13" value="" style="shape=tableRow;horizontal=0;startSize=0;swimlaneHead=0;swimlaneBody=0;top=0;left=0;bottom=0;right=0;dropTarget=0;collapsible=0;recursiveResize=0;expand=0;fontStyle=0;strokeColor=inherit;fillColor=#ffffff;" vertex="1" parent="kJUBwsbBLmpp6doSzpsi-8">
          <mxGeometry y="30" width="300" height="32" as="geometry" />
        </mxCell>
        <mxCell id="kJUBwsbBLmpp6doSzpsi-14" value="EC2" style="connectable=0;recursiveResize=0;strokeColor=inherit;fillColor=inherit;align=center;whiteSpace=wrap;html=1;" vertex="1" parent="kJUBwsbBLmpp6doSzpsi-13">
          <mxGeometry width="100" height="32" as="geometry">
            <mxRectangle width="100" height="32" as="alternateBounds" />
          </mxGeometry>
        </mxCell>
        <mxCell id="kJUBwsbBLmpp6doSzpsi-15" value="&amp;nbsp;&lt;span style=&quot;color: rgb(22, 25, 31); font-family: &amp;quot;Amazon Ember&amp;quot;, &amp;quot;Helvetica Neue&amp;quot;, Roboto, Arial, sans-serif; font-size: 14px; text-align: left; background-color: rgb(255, 255, 255);&quot;&gt;172.31.1.90&lt;/span&gt;" style="connectable=0;recursiveResize=0;strokeColor=inherit;fillColor=inherit;align=center;whiteSpace=wrap;html=1;" vertex="1" parent="kJUBwsbBLmpp6doSzpsi-13">
          <mxGeometry x="100" width="110" height="32" as="geometry">
            <mxRectangle width="110" height="32" as="alternateBounds" />
          </mxGeometry>
        </mxCell>
        <mxCell id="kJUBwsbBLmpp6doSzpsi-16" value="3.10.159.40" style="connectable=0;recursiveResize=0;strokeColor=inherit;fillColor=inherit;align=center;whiteSpace=wrap;html=1;" vertex="1" parent="kJUBwsbBLmpp6doSzpsi-13">
          <mxGeometry x="210" width="90" height="32" as="geometry">
            <mxRectangle width="90" height="32" as="alternateBounds" />
          </mxGeometry>
        </mxCell>
        <mxCell id="kJUBwsbBLmpp6doSzpsi-17" value="" style="shape=tableRow;horizontal=0;startSize=0;swimlaneHead=0;swimlaneBody=0;top=0;left=0;bottom=0;right=0;dropTarget=0;collapsible=0;recursiveResize=0;expand=0;fontStyle=1;strokeColor=inherit;fillColor=#EAF2D3;" vertex="1" parent="kJUBwsbBLmpp6doSzpsi-8">
          <mxGeometry y="62" width="300" height="31" as="geometry" />
        </mxCell>
        <mxCell id="kJUBwsbBLmpp6doSzpsi-18" value="" style="connectable=0;recursiveResize=0;strokeColor=inherit;fillColor=inherit;whiteSpace=wrap;html=1;" vertex="1" parent="kJUBwsbBLmpp6doSzpsi-17">
          <mxGeometry width="100" height="31" as="geometry">
            <mxRectangle width="100" height="31" as="alternateBounds" />
          </mxGeometry>
        </mxCell>
        <mxCell id="kJUBwsbBLmpp6doSzpsi-19" value="" style="connectable=0;recursiveResize=0;strokeColor=inherit;fillColor=inherit;whiteSpace=wrap;html=1;" vertex="1" parent="kJUBwsbBLmpp6doSzpsi-17">
          <mxGeometry x="100" width="110" height="31" as="geometry">
            <mxRectangle width="110" height="31" as="alternateBounds" />
          </mxGeometry>
        </mxCell>
        <mxCell id="kJUBwsbBLmpp6doSzpsi-20" value="" style="connectable=0;recursiveResize=0;strokeColor=inherit;fillColor=inherit;whiteSpace=wrap;html=1;" vertex="1" parent="kJUBwsbBLmpp6doSzpsi-17">
          <mxGeometry x="210" width="90" height="31" as="geometry">
            <mxRectangle width="90" height="31" as="alternateBounds" />
          </mxGeometry>
        </mxCell>
        <mxCell id="kJUBwsbBLmpp6doSzpsi-21" value="Security Group" style="text;html=1;strokeColor=none;fillColor=none;align=center;verticalAlign=middle;whiteSpace=wrap;rounded=0;fontSize=16;" vertex="1" parent="1">
          <mxGeometry x="1010" y="190" width="200" height="30" as="geometry" />
        </mxCell>
        <mxCell id="kJUBwsbBLmpp6doSzpsi-22" value="launch-wizard-1" style="text;html=1;strokeColor=default;fillColor=none;align=center;verticalAlign=middle;whiteSpace=wrap;rounded=0;" vertex="1" parent="1">
          <mxGeometry x="1035" y="230" width="150" height="30" as="geometry" />
        </mxCell>
        <mxCell id="kJUBwsbBLmpp6doSzpsi-23" value="3.10.159.40" style="text;html=1;strokeColor=none;fillColor=none;align=center;verticalAlign=middle;whiteSpace=wrap;rounded=0;" vertex="1" parent="1">
          <mxGeometry x="180" y="260" width="60" height="30" as="geometry" />
        </mxCell>
        <mxCell id="kJUBwsbBLmpp6doSzpsi-24" value="VPC" style="ellipse;shape=cloud;whiteSpace=wrap;html=1;" vertex="1" parent="1">
          <mxGeometry x="330" y="30" width="120" height="80" as="geometry" />
        </mxCell>
        <mxCell id="kJUBwsbBLmpp6doSzpsi-25" value="" style="shape=image;html=1;verticalAlign=top;verticalLabelPosition=bottom;labelBackgroundColor=#ffffff;imageAspect=0;aspect=fixed;image=https://cdn4.iconfinder.com/data/icons/essentials-71/24/008_-_Lock-128.png" vertex="1" parent="1">
          <mxGeometry x="260" y="90" width="58" height="58" as="geometry" />
        </mxCell>
      </root>
    </mxGraphModel>
  </diagram>
</mxfile>
